<svg width="80" height="80" viewBox="0 0 80 80" fill="none" xmlns="http://www.w3.org/2000/svg">
<g id="share-svgrepo-com 1" clip-path="url(#clip0_67_167)">
<path id="Vector" d="M0 64.963C0 69.1306 1.46427 72.6786 4.39282 75.6072C7.32137 78.5357 10.8694 80 15.037 80H65.0475C69.1587 80 72.6786 78.5357 75.6072 75.6072C78.5357 72.6786 80 69.1306 80 64.963V43.3369L70.0317 51.7001V64.963C70.0317 66.371 69.553 67.5537 68.5956 68.5111C67.6382 69.4685 66.4555 69.9754 65.0475 70.0317H15.037C13.629 70.0317 12.4463 69.5248 11.4889 68.5111C10.5315 67.4974 10.0528 66.3147 10.0528 64.963V14.9525C10.0528 13.6008 10.5315 12.4182 11.4889 11.4044C12.4463 10.3907 13.629 9.912 15.037 9.96832H40.0422V0H15.037C10.8694 0 7.32137 1.46427 4.39282 4.39282C1.46427 7.32137 0 10.8413 0 14.9525L0 64.963ZM15.037 50.0106C15.037 54.8539 15.9944 59.5002 17.9092 63.9493C18.8103 58.768 20.7814 54.0655 23.8226 49.8416C26.8638 45.6177 30.6371 42.2105 35.1426 39.6199C39.648 37.0292 44.604 35.5649 50.0106 35.227V50.0106L80 25.0053L50.0106 0V14.9525C45.2798 14.9525 40.7462 15.8817 36.4097 17.7402C32.0732 19.5987 28.3562 22.1049 25.2587 25.2587C22.1612 28.4125 19.6551 32.1295 17.7402 36.4097C15.8254 40.6899 14.9243 45.2235 15.037 50.0106Z" fill="black"/>
</g>
<defs>
<clipPath id="clip0_67_167">
<rect width="80" height="80" fill="white"/>
</clipPath>
</defs>
</svg>
