<svg width="16" height="16" viewBox="0 0 16 16" fill="none" xmlns="http://www.w3.org/2000/svg">
<path d="M2 14.6663V13.6663H3.66667V13.1663H2.66667V12.1663H3.66667V11.6663H2V10.6663H4C4.18889 10.6663 4.34722 10.7302 4.475 10.858C4.60278 10.9858 4.66667 11.1441 4.66667 11.333V11.9997C4.66667 12.1886 4.60278 12.3469 4.475 12.4747C4.34722 12.6025 4.18889 12.6663 4 12.6663C4.18889 12.6663 4.34722 12.7302 4.475 12.858C4.60278 12.9858 4.66667 13.1441 4.66667 13.333V13.9997C4.66667 14.1886 4.60278 14.3469 4.475 14.4747C4.34722 14.6025 4.18889 14.6663 4 14.6663H2ZM2 9.99967V8.16634C2 7.97745 2.06389 7.81912 2.19167 7.69134C2.31944 7.56356 2.47778 7.49967 2.66667 7.49967H3.66667V6.99967H2V5.99967H4C4.18889 5.99967 4.34722 6.06356 4.475 6.19134C4.60278 6.31912 4.66667 6.47745 4.66667 6.66634V7.83301C4.66667 8.0219 4.60278 8.18023 4.475 8.30801C4.34722 8.43579 4.18889 8.49967 4 8.49967H3V8.99967H4.66667V9.99967H2ZM3 5.33301V2.33301H2V1.33301H4V5.33301H3ZM6 12.6663V11.333H14V12.6663H6ZM6 8.66634V7.33301H14V8.66634H6ZM6 4.66634V3.33301H14V4.66634H6Z" fill="white"/>
</svg>
